<?xml version="1.0" encoding="UTF-8" standalone="no"?>
<!-- Created with Inkscape (http://www.inkscape.org/) -->

<svg
   version="1.1"
   id="svg2"
   xml:space="preserve"
   width="2560"
   height="1440"
   viewBox="0 0 2560 1440"
   sodipodi:docname="ajezmediadiamondwhite.ai"
   xmlns:inkscape="http://www.inkscape.org/namespaces/inkscape"
   xmlns:sodipodi="http://sodipodi.sourceforge.net/DTD/sodipodi-0.dtd"
   xmlns="http://www.w3.org/2000/svg"
   xmlns:svg="http://www.w3.org/2000/svg"><defs
     id="defs6"><clipPath
       clipPathUnits="userSpaceOnUse"
       id="clipPath16"><path
         d="M 0,1080 H 1920 V 0 H 0 Z"
         id="path14" /></clipPath></defs><sodipodi:namedview
     id="namedview4"
     pagecolor="#ffffff"
     bordercolor="#666666"
     borderopacity="1.0"
     inkscape:pageshadow="2"
     inkscape:pageopacity="0.0"
     inkscape:pagecheckerboard="0" /><g
     id="g8"
     inkscape:groupmode="layer"
     inkscape:label="ajezmediadiamondwhite"
     transform="matrix(1.3333333,0,0,-1.3333333,0,1440)"><g
       id="g10"><g
         id="g12"
         clip-path="url(#clipPath16)"><g
           id="g18"
           transform="translate(1542.4249,798.4998)"><path
             d="m 0,0 c -212.659,-201.364 -422.692,-400.241 -635.404,-601.654 35.212,-34.863 63.864,-63.231 101.135,-100.133 211.681,200.456 421.943,399.568 633.544,599.948 C 65.153,-66.836 36.993,-37.948 0,0 m -675.297,-561.877 c 211.322,200.463 417.785,396.316 644.701,611.572 -55.424,44.92 -101.102,83.759 -148.958,119.698 -15.744,11.823 -37.071,22.712 -55.94,22.872 -194.77,1.657 -389.564,1.627 -584.335,0.079 -18.927,-0.151 -41.97,-8.982 -55.924,-21.674 -81.91,-74.504 -161.845,-151.186 -242.04,-227.56 -14.759,-14.055 -27.658,-30.063 -44.759,-48.842 164.701,-154.185 324.569,-303.847 487.255,-456.145 m -552.379,441.354 c 41.377,52.438 76.08,104.695 119.035,148.941 66.729,68.736 138.195,133.006 209.795,196.765 13.984,12.452 37.685,19.52 56.966,19.647 207.832,1.374 415.677,1.206 623.513,0.247 17.93,-0.083 41.046,-3.251 52.913,-14.397 C -54.927,126.868 53.718,21.051 162.609,-84.494 c 4.156,-4.029 5.268,-11.199 9.715,-21.226 -15.211,-16.103 -30.357,-33.573 -46.974,-49.509 -201.829,-193.557 -404.101,-386.653 -605.636,-580.515 -32.92,-31.667 -60.119,-39.285 -97.071,-2.666 -121.368,120.275 -244.617,238.685 -368.539,356.341 -98.556,93.572 -199.158,184.99 -281.78,261.546"
             style="fill:#ffffff;fill-opacity:1;fill-rule:nonzero;stroke:none"
             id="path20" /></g></g></g></g></svg>